<svg viewBox="0 0 400 500" xmlns="http://www.w3.org/2000/svg">
  <!-- Blue background -->
  <rect width="400" height="500" fill="#0052CC"/>
  
  <!-- White container for QR code -->
  <rect x="50" y="50" width="300" height="350" fill="white" rx="20"/>
  
  <!-- GCash header -->
  <circle cx="100" cy="120" r="40" fill="#ffffff"/>
  <text x="100" y="130" fontSize="24" fontWeight="bold" textAnchor="middle" fill="#0052CC" fontFamily="Arial">G</text>
  
  <!-- QR Code section -->
  <g id="qr-area">
    <!-- Top-left corner marker -->
    <rect x="80" y="160" width="35" height="35" fill="black"/>
    <rect x="85" y="165" width="25" height="25" fill="white"/>
    <rect x="90" y="170" width="15" height="15" fill="black"/>
    
    <!-- Top-right corner marker -->
    <rect x="285" y="160" width="35" height="35" fill="black"/>
    <rect x="290" y="165" width="25" height="25" fill="white"/>
    <rect x="295" y="170" width="15" height="15" fill="black"/>
    
    <!-- Bottom-left corner marker -->
    <rect x="80" y="285" width="35" height="35" fill="black"/>
    <rect x="85" y="290" width="25" height="25" fill="white"/>
    <rect x="90" y="295" width="15" height="15" fill="black"/>
    
    <!-- QR data pattern (simplified) -->
    <g fill="black">
      <rect x="130" y="170" width="4" height="4"/><rect x="138" y="170" width="4" height="4"/><rect x="146" y="170" width="4" height="4"/>
      <rect x="154" y="170" width="4" height="4"/><rect x="162" y="170" width="4" height="4"/><rect x="170" y="170" width="4" height="4"/>
      <rect x="178" y="170" width="4" height="4"/><rect x="186" y="170" width="4" height="4"/><rect x="194" y="170" width="4" height="4"/>
      <rect x="202" y="170" width="4" height="4"/><rect x="210" y="170" width="4" height="4"/><rect x="218" y="170" width="4" height="4"/>
      <rect x="226" y="170" width="4" height="4"/><rect x="234" y="170" width="4" height="4"/><rect x="242" y="170" width="4" height="4"/>
      
      <rect x="130" y="182" width="4" height="4"/><rect x="154" y="182" width="4" height="4"/><rect x="178" y="182" width="4" height="4"/>
      <rect x="202" y="182" width="4" height="4"/><rect x="226" y="182" width="4" height="4"/><rect x="250" y="182" width="4" height="4"/>
      
      <rect x="130" y="194" width="4" height="4"/><rect x="146" y="194" width="4" height="4"/><rect x="162" y="194" width="4" height="4"/>
      <rect x="186" y="194" width="4" height="4"/><rect x="210" y="194" width="4" height="4"/><rect x="234" y="194" width="4" height="4"/>
      <rect x="250" y="194" width="4" height="4"/>
      
      <rect x="130" y="206" width="4" height="4"/><rect x="162" y="206" width="4" height="4"/><rect x="194" y="206" width="4" height="4"/>
      <rect x="218" y="206" width="4" height="4"/><rect x="242" y="206" width="4" height="4"/>
      
      <rect x="130" y="218" width="4" height="4"/><rect x="138" y="218" width="4" height="4"/><rect x="154" y="218" width="4" height="4"/>
      <rect x="170" y="218" width="4" height="4"/><rect x="202" y="218" width="4" height="4"/><rect x="234" y="218" width="4" height="4"/>
      <rect x="250" y="218" width="4" height="4"/>
      
      <rect x="130" y="230" width="4" height="4"/><rect x="162" y="230" width="4" height="4"/><rect x="202" y="230" width="4" height="4"/>
      <rect x="226" y="230" width="4" height="4"/><rect x="242" y="230" width="4" height="4"/>
      
      <rect x="130" y="242" width="4" height="4"/><rect x="146" y="242" width="4" height="4"/><rect x="170" y="242" width="4" height="4"/>
      <rect x="194" y="242" width="4" height="4"/><rect x="218" y="242" width="4" height="4"/><rect x="242" y="242" width="4" height="4"/>
    </g>
    
    <!-- InstaPay logo in center -->
    <circle cx="200" cy="225" r="30" fill="white" stroke="#0052CC" strokeWidth="2"/>
    <text x="200" y="220" fontSize="11" fontWeight="bold" textAnchor="middle" fill="#FF3333" fontFamily="Arial">insta</text>
    <text x="200" y="233" fontSize="11" fontWeight="bold" textAnchor="middle" fill="#0052CC" fontFamily="Arial">Pay</text>
  </g>
  
  <!-- Customer info at bottom -->
  <text x="200" y="390" fontSize="14" fontWeight="bold" textAnchor="middle" fill="white" fontFamily="Arial">MA'K CH*******R</text>
  <text x="200" y="410" fontSize="12" textAnchor="middle" fill="white" fontFamily="Arial">G.</text>
  <text x="200" y="430" fontSize="11" textAnchor="middle" fill="white" fontFamily="Arial">Mobile No.: +63 908 658 ....</text>
  <text x="200" y="450" fontSize="11" textAnchor="middle" fill="white" fontFamily="Arial">User ID: ..........X0TXKL</text>
</svg>
